<?xml version="1.0" ?><!DOCTYPE svg  PUBLIC '-//W3C//DTD SVG 1.1//EN'  'http://www.w3.org/Graphics/SVG/1.1/DTD/svg11.dtd'><svg height="256px" style="shape-rendering:geometricPrecision; text-rendering:geometricPrecision; image-rendering:optimizeQuality; fill-rule:evenodd; clip-rule:evenodd" version="1.1" viewBox="0 0 256000 256002" width="256px" xml:space="preserve" xmlns="http://www.w3.org/2000/svg" xmlns:xlink="http://www.w3.org/1999/xlink"><defs><style type="text/css">
   <![CDATA[
    .fil1 {fill:none}
    .fil0 {fill:#C41200}
   ]]>
  </style></defs><g id="Layer_x0020_1"><path class="fil0" d="M54645 27630c-3283,-5996 1241,-11992 10143,-15701 15642,-5680 28714,-9267 44357,-11901 10753,-428 13853,4210 13904,9897 2950,32813 4760,67341 6568,100154 426,12946 -12571,16754 -19856,5712 -18752,-29577 -37506,-58298 -55116,-88161zm-8647 90797c-4362,-994 -10488,2675 -11376,9893 -2823,12076 -3414,33795 -738,43883 1651,6848 7635,8898 12277,7278l52894 -16368c12015,-3482 12003,-19742 -289,-23431l-52768 -21255zm82735 130891c-768,4407 -6302,8111 -13301,6139 -12227,-2071 -32485,-9928 -40753,-16297 -5675,-4173 -5472,-9957 -2182,-13610l36040 -42860c8715,-10304 21574,-5630 20220,9415l-24 57213zm53521 -15063c2934,3378 10442,3694 15419,-1608 9690,-8082 20988,-23553 25067,-34133 2707,-6503 119,-12210 -4584,-13641l-52990 -18111c-11755,-4280 -20205,8268 -12460,18500l29548 48993zm2418 -156712c3217,-3109 9870,-2844 14364,2873 8664,8873 20410,27153 23340,37169 2130,6715 -1441,11270 -6250,12286l-54083 13702c-12083,3237 -19693,-10286 -11083,-19804l33712 -46226z"/></g><rect class="fil1" height="256000" width="256000" y="2"/></svg>